<svg fill="none" height="613" viewBox="0 0 559 613" width="559" xmlns="http://www.w3.org/2000/svg" xmlns:xlink="http://www.w3.org/1999/xlink"><clipPath id="a"><path d="m0 0h558.01v612.33h-558.01z"/></clipPath><g clip-path="url(#a)" fill="#000"><path d="m558.01 612.33h-558.01l30.32-107.26h498.55z"/><path d="m502.17 137.88c-14.41-30.01-33.18-55.2502-56.32-75.7202-23.14-20.48-49.35-35.97-78.63-46.43-29.29-10.49003-59.04-15.72003438-89.26-15.72003438s-60.57 5.23000438-89.61 15.72003438c-29.04 10.46-55.14 25.95-78.28 46.43-23.15 20.47-41.92 45.7202-56.32 75.7202-14.41 30.01-22.32 64.77-23.73 104.3v237.18l280.31-1.1.73-211.57 37.88.73-69.21-111.66-71.39 110.93 40.79-.73.73 146.19-132 2.21v-171.46c.46-22.39 5.42-41.92 14.87-58.58 9.44-16.68 21.61-30.61 36.49-41.8 14.87-11.19 31.75-19.64 50.65-25.36 18.89-5.72 38.26-8.57 58.09-8.57s39.43 2.85 58.8 8.57c19.36 5.72 36.49 14.29 51.36 25.72 14.88 11.43 26.92 25.71 36.13 42.86s13.81 37.15 13.81 60.01v224.32h87.84v-227.9c-1.42-39.53-9.33-74.29-23.73-104.3z"/></g></svg>